# xmcd
#
# Track frame offsets:
#	183
#	14658
#	29920
#	46033
#	58433
#	77308
#	100958
#	112970
#	126308
#	141808
#	159320
#	174258
#	187908
#	201020
#	216058
#	233958
#	247633
#	262420
#
# Disc length: 3668 seconds
#
# Revision: 2
# Processed by: cddbd v1.5.2PL0 Copyright (c) Steve Scherf et al.
# Submitted via: SynApp - FreeCDDB Version: 2.0
#
DISCID=f70e5212
DTITLE=Dolly Parton - Wereldsterren
DYEAR=1990
DGENRE=Country Folk
TTITLE0=We used to
TTITLE1=You are the only one
TTITLE2=Heartbreaker
TTITLE3=9 to 5
TTITLE4=Island in the stream
TTITLE5=You are
TTITLE6=Jolene
TTITLE7=Here you come again
TTITLE8=Applejack
TTITLE9=Real love
TTITLE10=But you know I love you
TTITLE11=I really don't want to know
TTITLE12=I always love you
TTITLE13=Sandy's song
TTITLE14=Starting over again
TTITLE15=Two doors down
TTITLE16=Sweet summer lovin'
TTITLE17=The love I used to call mine
EXTD=
EXTT0=
EXTT1=
EXTT2=
EXTT3=
EXTT4=
EXTT5=
EXTT6=
EXTT7=
EXTT8=
EXTT9=
EXTT10=
EXTT11=
EXTT12=
EXTT13=
EXTT14=
EXTT15=
EXTT16=
EXTT17=
PLAYORDER=
